<svg width="512" height="512" viewBox="0 0 512 512" fill="none" xmlns="http://www.w3.org/2000/svg">
  <!-- 背景圆形 -->
  <circle cx="256" cy="256" r="240" fill="#8b5cf6" stroke="#ffffff" stroke-width="8"/>
  
  <!-- 水晶形状 -->
  <g transform="translate(256, 256)">
    <!-- 主水晶 -->
    <polygon points="0,-80 -40,-20 -20,20 20,20 40,-20" fill="#ffffff" opacity="0.9"/>
    <polygon points="0,-80 40,-20 60,0 20,20 0,40" fill="#e0e7ff" opacity="0.8"/>
    <polygon points="0,-80 -40,-20 -60,0 -20,20 0,40" fill="#c7d2fe" opacity="0.8"/>
    
    <!-- 光芒效果 -->
    <circle cx="0" cy="-40" r="8" fill="#fbbf24" opacity="0.8"/>
    <circle cx="30" cy="-10" r="6" fill="#f59e0b" opacity="0.7"/>
    <circle cx="-30" cy="-10" r="6" fill="#f59e0b" opacity="0.7"/>
    <circle cx="0" cy="20" r="4" fill="#fbbf24" opacity="0.6"/>
    
    <!-- 日历元素 -->
    <rect x="-50" y="40" width="100" height="80" rx="8" fill="#ffffff" opacity="0.9"/>
    <rect x="-45" y="45" width="90" height="10" fill="#8b5cf6"/>
    
    <!-- 日期网格 -->
    <g fill="#6b7280" opacity="0.8">
      <circle cx="-30" cy="70" r="3"/>
      <circle cx="-10" cy="70" r="3"/>
      <circle cx="10" cy="70" r="3"/>
      <circle cx="30" cy="70" r="3"/>
      <circle cx="-30" cy="90" r="3"/>
      <circle cx="-10" cy="90" r="3"/>
      <circle cx="10" cy="90" r="3" fill="#8b5cf6"/>
      <circle cx="30" cy="90" r="3"/>
      <circle cx="-30" cy="110" r="3"/>
      <circle cx="-10" cy="110" r="3"/>
      <circle cx="10" cy="110" r="3"/>
      <circle cx="30" cy="110" r="3"/>
    </g>
  </g>
</svg>
