<?xml version="1.0" standalone="no"?>
<!DOCTYPE svg PUBLIC "-//W3C//DTD SVG 20010904//EN"
 "http://www.w3.org/TR/2001/REC-SVG-20010904/DTD/svg10.dtd">
<svg version="1.0" xmlns="http://www.w3.org/2000/svg"
 width="180.000000pt" height="180.000000pt" viewBox="0 0 180.000000 180.000000"
 preserveAspectRatio="xMidYMid meet">
<metadata>
Created for 水晶日历 PWA
</metadata>
<g transform="translate(0.000000,180.000000) scale(0.100000,-0.100000)"
fill="#8b5cf6" stroke="none">
<path d="M720 1650 c-19 -19 -20 -33 -20 -240 0 -207 1 -221 20 -240 19 -19
33 -20 240 -20 207 0 221 1 240 20 19 19 20 33 20 240 0 207 -1 221 -20 240
-19 19 -33 20 -240 20 -207 0 -221 -1 -240 -20z m400 -240 l0 -160 -160 0
-160 0 0 160 0 160 160 0 160 0 0 -160z"/>
<path d="M320 1250 c-19 -19 -20 -33 -20 -240 0 -207 1 -221 20 -240 19 -19
33 -20 240 -20 207 0 221 1 240 20 19 19 20 33 20 240 0 207 -1 221 -20 240
-19 19 -33 20 -240 20 -207 0 -221 -1 -240 -20z m400 -240 l0 -160 -160 0
-160 0 0 160 0 160 160 0 160 0 0 -160z"/>
<path d="M1120 1250 c-19 -19 -20 -33 -20 -240 0 -207 1 -221 20 -240 19 -19
33 -20 240 -20 207 0 221 1 240 20 19 19 20 33 20 240 0 207 -1 221 -20 240
-19 19 -33 20 -240 20 -207 0 -221 -1 -240 -20z m400 -240 l0 -160 -160 0
-160 0 0 160 0 160 160 0 160 0 0 -160z"/>
<path d="M320 850 c-19 -19 -20 -33 -20 -240 0 -207 1 -221 20 -240 19 -19
33 -20 240 -20 207 0 221 1 240 20 19 19 20 33 20 240 0 207 -1 221 -20 240
-19 19 -33 20 -240 20 -207 0 -221 -1 -240 -20z m400 -240 l0 -160 -160 0
-160 0 0 160 0 160 160 0 160 0 0 -160z"/>
<path d="M720 450 c-19 -19 -20 -33 -20 -240 0 -207 1 -221 20 -240 19 -19
33 -20 240 -20 207 0 221 1 240 20 19 19 20 33 20 240 0 207 -1 221 -20 240
-19 19 -33 20 -240 20 -207 0 -221 -1 -240 -20z m400 -240 l0 -160 -160 0
-160 0 0 160 0 160 160 0 160 0 0 -160z"/>
<path d="M1120 450 c-19 -19 -20 -33 -20 -240 0 -207 1 -221 20 -240 19 -19
33 -20 240 -20 207 0 221 1 240 20 19 19 20 33 20 240 0 207 -1 221 -20 240
-19 19 -33 20 -240 20 -207 0 -221 -1 -240 -20z m400 -240 l0 -160 -160 0
-160 0 0 160 0 160 160 0 160 0 0 -160z"/>
</g>
</svg>
